<svg width="25" height="23" viewBox="0 0 25 23" fill="none" xmlns="http://www.w3.org/2000/svg">
<path d="M6.94596 0.107758C5.08596 -0.342867 3.17268 0.654633 2.67861 2.33463L0.217989 10.6253C-0.280918 12.3053 0.823457 14.0334 2.68346 14.484L11.8624 16.7065C13.7224 17.1571 15.6356 16.1596 16.1346 14.4796L18.5952 6.18901C19.0941 4.50901 17.9897 2.78088 16.1297 2.33026L6.94596 0.107758ZM8.06002 9.10713C7.76455 8.67401 7.75486 8.12713 8.03096 7.68526C8.30705 7.24338 8.83018 6.97213 9.3969 6.97651C9.95877 6.98088 10.4722 7.26088 10.7435 7.70713C11.0389 8.14026 11.0486 8.68713 10.7725 9.12901C10.4964 9.57088 9.9733 9.84213 9.40658 9.83776C8.84471 9.83338 8.33127 9.55338 8.06002 9.10713ZM3.93315 9.64526C4.41268 9.37838 5.01815 9.36963 5.50736 9.61901C5.99658 9.86838 6.2969 10.3409 6.29205 10.8528C6.28721 11.3603 5.97721 11.824 5.48315 12.069C5.00361 12.3359 4.39815 12.3446 3.90893 12.0953C3.41971 11.8459 3.1194 11.3734 3.12424 10.8615C3.12908 10.354 3.43908 9.89026 3.93315 9.64526ZM12.8941 13.8628C12.4146 14.1296 11.8091 14.1384 11.3199 13.889C10.8306 13.6396 10.5303 13.1671 10.5352 12.6553C10.54 12.1478 10.85 11.684 11.3441 11.439C11.8236 11.1721 12.4291 11.1634 12.9183 11.4128C13.4075 11.6621 13.7078 12.1346 13.703 12.6465C13.6981 13.154 13.3881 13.6178 12.8941 13.8628ZM13.33 4.74526C13.8096 4.47838 14.415 4.46963 14.9042 4.71901C15.3935 4.96838 15.6938 5.44088 15.6889 5.95276C15.6841 6.46026 15.3741 6.92401 14.88 7.16901C14.4005 7.43588 13.795 7.44463 13.3058 7.19526C12.8166 6.94588 12.5163 6.47338 12.5211 5.96151C12.526 5.45401 12.836 4.99026 13.33 4.74526ZM7.46908 5.37526C6.98955 5.64213 6.38408 5.65088 5.89486 5.40151C5.40565 5.15213 5.10533 4.67963 5.11018 4.16776C5.11502 3.66026 5.42502 3.19651 5.91908 2.95151C6.39861 2.68463 7.00408 2.67588 7.4933 2.92526C7.98252 3.17463 8.28283 3.64713 8.27799 4.15901C8.27314 4.66651 7.96314 5.13026 7.46908 5.37526ZM20.3438 8.40713L18.3772 15.0221C17.5441 17.8221 14.3569 19.4846 11.2569 18.7365L9.40174 18.2859V19.6071C9.40174 21.1515 10.7919 22.4071 12.5017 22.4071H21.8017C23.5116 22.4071 24.9017 21.1515 24.9017 19.6071V11.2071C24.9017 9.66276 23.5116 8.40713 21.8017 8.40713H20.3438Z" fill="#FFFDFD"/>
</svg>
